G75*
G70*
%OFA0B0*%
%FSLAX24Y24*%
%IPPOS*%
%LPD*%
%AMOC8*
5,1,8,0,0,1.08239X$1,22.5*
%
%ADD10R,0.0299X0.0945*%
%ADD11C,0.0000*%
%ADD12OC8,0.0660*%
%ADD13C,0.0300*%
%ADD14R,0.0591X0.0591*%
D10*
X003750Y005339D03*
X004250Y005339D03*
X004750Y005339D03*
X005250Y005339D03*
X005750Y005339D03*
X006250Y005339D03*
X006750Y005339D03*
X007250Y005339D03*
X007750Y005339D03*
X008250Y005339D03*
X008250Y007661D03*
X007750Y007661D03*
X007250Y007661D03*
X006750Y007661D03*
X006250Y007661D03*
X005750Y007661D03*
X005250Y007661D03*
X004750Y007661D03*
X004250Y007661D03*
X003750Y007661D03*
X003750Y013339D03*
X004250Y013339D03*
X004750Y013339D03*
X005250Y013339D03*
X005750Y013339D03*
X006250Y013339D03*
X006750Y013339D03*
X007250Y013339D03*
X007750Y013339D03*
X008250Y013339D03*
X008250Y015661D03*
X007750Y015661D03*
X007250Y015661D03*
X006750Y015661D03*
X006250Y015661D03*
X005750Y015661D03*
X005250Y015661D03*
X004750Y015661D03*
X004250Y015661D03*
X003750Y015661D03*
D11*
X000500Y021500D02*
X000500Y000500D01*
X026500Y000500D01*
X026500Y001500D01*
X027500Y002500D01*
X027500Y015400D01*
X026500Y016400D01*
X026500Y020900D01*
X025900Y021500D01*
X000500Y021500D01*
D12*
X007900Y020500D03*
X008900Y020500D03*
X009900Y020500D03*
X010900Y020500D03*
X011900Y020500D03*
X012900Y020500D03*
X013900Y020500D03*
X014900Y020500D03*
X015900Y020500D03*
X016900Y020500D03*
X018500Y020500D03*
X019500Y020500D03*
X020500Y020500D03*
X021500Y020500D03*
X022500Y020500D03*
X023500Y020500D03*
X024500Y020500D03*
X025500Y020500D03*
X025500Y001500D03*
X024500Y001500D03*
X023500Y001500D03*
X022500Y001500D03*
X021500Y001500D03*
X020500Y001500D03*
X018500Y001500D03*
X017500Y001500D03*
X016500Y001500D03*
X015500Y001500D03*
X014500Y001500D03*
X013500Y001500D03*
X012500Y001500D03*
X011500Y001500D03*
D13*
X014500Y001500D02*
X014500Y002800D01*
X002400Y002800D01*
X002400Y009000D01*
X006250Y009000D01*
X006250Y007661D01*
X006750Y007661D01*
X004750Y009650D02*
X011900Y009650D01*
X011900Y009700D01*
X014900Y010350D02*
X005250Y010350D01*
X005250Y013339D01*
X005750Y013339D02*
X005750Y010950D01*
X015900Y010950D01*
X015900Y011050D01*
X014100Y011900D02*
X016700Y014500D01*
X016700Y015600D01*
X013550Y017900D02*
X013550Y019400D01*
X012900Y020500D01*
X012700Y018950D02*
X001550Y018950D01*
X001550Y010350D01*
X004250Y010350D01*
X004250Y013339D01*
X003750Y013339D02*
X003750Y011350D01*
X002500Y011350D01*
X002500Y017900D01*
X013550Y017900D01*
X014100Y011900D02*
X006400Y011900D01*
X006250Y012200D01*
X006250Y013339D01*
X004750Y013339D02*
X004750Y009650D01*
X004750Y005339D02*
X004750Y004000D01*
X005250Y004000D01*
X005250Y005339D01*
X005750Y005339D02*
X005750Y004000D01*
X006250Y004000D01*
X006250Y005339D01*
X006750Y005339D02*
X006750Y004000D01*
X007250Y004000D01*
X007250Y005339D01*
X007750Y005339D02*
X007750Y004000D01*
X008250Y004000D01*
X008250Y005339D01*
X008250Y004000D02*
X017500Y004000D01*
X017500Y001500D01*
X016500Y001500D01*
X007750Y004000D02*
X007250Y004000D01*
X006750Y004000D02*
X006250Y004000D01*
X005750Y004000D02*
X005250Y004000D01*
X004750Y004000D02*
X003750Y004000D01*
X003750Y005339D01*
D14*
X011900Y009700D03*
X014900Y010350D03*
X015900Y011050D03*
X016700Y015600D03*
X012700Y018950D03*
M02*
