%
M48
M72
T01C0.0394
%
T01
X21500Y20500
X20500Y1500
X22500Y20500
X23500Y20500
X24500Y20500
X25500Y20500
X20500Y20500
X19500Y20500
X18500Y20500
X16900Y20500
X15900Y20500
X14900Y20500
X13900Y20500
X12900Y20500
X11900Y20500
X10900Y20500
X9900Y20500
X21500Y1500
X22500Y1500
X23500Y1500
X24500Y1500
X25500Y1500
X18500Y1500
X17500Y1500
X16500Y1500
X15500Y1500
X14500Y1500
X13500Y1500
X8900Y20500
X7900Y20500
X12500Y1500
X11500Y1500
X14900Y10350
X12700Y18950
X11900Y9700
X16700Y15600
X15900Y11050
M30
